<?xml version="1.0" encoding="UTF-8"?>
<svg width="162px" height="144px" viewBox="0 0 162 144" version="1.1" xmlns="http://www.w3.org/2000/svg" xmlns:xlink="http://www.w3.org/1999/xlink">
    <!-- Generator: Sketch 48.2 (47327) - http://www.bohemiancoding.com/sketch -->
    <title>Logo/Vertical_white</title>
    <desc>Created with Sketch.</desc>
    <defs></defs>
    <g id="Symbols" stroke="none" stroke-width="1" fill="none" fill-rule="evenodd">
        <g id="Logo/Vertical_white" fill="#FFFFFF" fill-rule="nonzero">
            <path d="M68.3707395,53.5527665 L68.3788059,36.2100269 L75.3925324,34.1167986 L75.3925324,61.5868914 C75.3925324,65.1804684 72.5007314,68.269896 68.3707395,69.6371491 C66.8620248,70.130909 65.2837049,70.3787557 63.6962662,70.3711907 C57.2431538,70.3711907 52,66.4428585 52,61.6030242 C52,56.7631899 57.2431538,52.8348577 63.6962662,52.8348577 C65.2826788,52.8241672 66.8606479,53.0665127 68.3707395,53.5527665 Z M101.862393,43.5585087 L101.862393,26.2157691 L108.876119,24.1225408 L108.876119,51.5926336 C108.876119,55.1902438 105.992385,58.2756381 101.862393,59.6267585 C100.351744,60.1182385 98.7724664,60.3660217 97.1838864,60.3608001 C90.730774,60.3608001 85.4876201,56.4324679 85.4876201,51.5926336 C85.4876201,46.7527993 90.730774,42.8244671 97.1838864,42.8244671 C98.7724664,42.8192456 100.351744,43.0670287 101.862393,43.5585087 Z" id="Combined-Shape"></path>
            <path d="M101.862393,2.35538602 L68.3868723,12.353677 L68.3868723,30.7773129 L75.3925324,28.6840846 L101.866426,20.7790219 L108.868053,18.6898268 L108.868053,0.262157691 L101.862393,2.35538602 Z M79.4257277,22.0010801 C78.8705857,22.7481497 78.140797,23.3477673 77.3002338,23.7474536 L77.2558686,25.6632214 L75.5578934,26.3569309 L75.6022586,24.4492296 C74.9640728,24.6748111 74.3024805,24.8276944 73.6300261,24.9049807 C73.2438301,24.944152 72.8546619,24.944152 72.4684659,24.9049807 L73.1057107,23.1505407 C73.5505751,23.1842301 73.9976561,23.1747752 74.4406984,23.1223084 C75.0321559,23.0504276 75.6121554,22.9040726 76.1669059,22.6867233 C76.742582,22.5115219 77.2717592,22.2097255 77.7156529,21.8034535 C77.9793513,21.5414199 78.1360664,21.190608 78.1552712,20.8193539 C78.1704234,20.6248089 78.11454,20.4313663 77.9979766,20.2748725 C77.8700085,20.1330112 77.7030718,20.0320074 77.5180263,19.9844825 C77.269658,19.9224026 77.0155865,19.8859136 76.7597856,19.8755862 L75.7797192,19.8755862 C75.4376246,19.8776663 75.0956623,19.8615106 74.7552876,19.8271878 C74.4337404,19.7997514 74.1189405,19.719348 73.8236195,19.5892293 C73.5493319,19.4677666 73.3165938,19.2686774 73.1541091,19.0165156 C72.9680301,18.6956524 72.884967,18.3253879 72.9161506,17.9557852 C72.9428834,17.1926086 73.2096262,16.4573018 73.6784245,15.8544905 C74.2486649,15.1451335 74.9956547,14.5984538 75.8442503,14.2694448 L75.8684495,12.5029053 L77.5583583,12.0995857 L77.5180263,13.757229 C77.9621425,13.6682889 78.412555,13.6143473 78.8651135,13.5959012 C79.1691264,13.5812695 79.4738074,13.5893584 79.7766157,13.6201004 L79.3732961,15.2091793 C79.0240599,15.1884497 78.6739016,15.1884497 78.3246654,15.2091793 C77.8372296,15.2409183 77.3552675,15.3302709 76.8888479,15.4753702 C76.3927514,15.5943175 75.9331382,15.8324304 75.5498271,16.1690797 C75.2653644,16.4142522 75.0946408,16.7659135 75.0779432,17.1410798 C75.0619215,17.3127546 75.1045749,17.48479 75.1989391,17.6290964 C75.302178,17.7553907 75.443769,17.844593 75.6022586,17.8831877 C75.8085943,17.9423763 76.0210694,17.9775633 76.2354702,17.9880508 C76.4855283,17.9880508 76.7638188,18.0203164 77.078408,18.0203164 C77.5099599,18.0445155 77.9132795,18.0848475 78.2883666,18.137279 C78.6261401,18.1787066 78.9538791,18.2797594 79.2563335,18.4357355 C79.519891,18.5730949 79.737277,18.7848709 79.8814787,19.044748 C80.0417801,19.3698801 80.1127686,19.731782 80.0871717,20.0933787 C80.0551188,20.7797301 79.8254254,21.4421997 79.4257277,22.0010801 Z M91.6140437,18.7059596 C91.057163,19.4519533 90.3260117,20.050168 89.4845166,20.4482999 L89.4401515,22.3640676 L87.7421763,23.0618104 L87.7905746,21.1541091 C87.1504565,21.3777995 86.4877414,21.5306297 85.814309,21.6098601 C85.4274024,21.654549 85.0371435,21.6626513 84.6487155,21.6340593 L85.2899936,19.871553 C85.7347993,19.9073087 86.1820849,19.8978495 86.6249812,19.8433206 C87.2171819,19.7706386 87.7982535,19.6257093 88.355222,19.4117687 C88.9302003,19.2349514 89.4590398,18.9333477 89.9039689,18.528499 C90.1563707,18.2615136 90.3026517,17.9115865 90.3153549,17.5443993 C90.3320634,17.3490656 90.2744499,17.1546202 90.154027,16.999918 C90.0283315,16.8561365 89.8603055,16.7558857 89.6740768,16.7135611 C89.4296635,16.6455252 89.1775726,16.6089314 88.9239025,16.6046648 C88.6294792,16.6046648 88.2987572,16.5804657 87.9357697,16.5804657 C87.5727821,16.5804657 87.2581929,16.5804657 86.9153713,16.5320673 C86.5934928,16.5066072 86.2783671,16.4261205 85.9837032,16.2941088 C85.711843,16.1743645 85.4806417,15.9781938 85.3182259,15.7294615 C85.1289425,15.4067008 85.0430817,15.0336992 85.072201,14.6606647 C85.0984419,13.8967122 85.366793,13.1608655 85.8385081,12.55937 C86.4071438,11.8483359 87.1546251,11.3012965 88.004334,10.9743243 L88.0446659,9.22391753 L89.7345747,8.82059801 L89.6942428,10.4742081 C90.136758,10.3837672 90.5859515,10.32981 91.0372968,10.3128802 C91.341308,10.2980974 91.6460004,10.3061865 91.9487989,10.3370794 L91.5454794,11.9261583 C91.1950215,11.9015887 90.8432733,11.9015887 90.4928154,11.9261583 C90.0055101,11.9563222 89.5235204,12.0443259 89.0569979,12.188316 C88.5624984,12.3093513 88.1036573,12.5456821 87.7179771,12.8779924 C87.4344427,13.1260254 87.262873,13.4778888 87.2420601,13.8540257 C87.22878,14.0247663 87.2727736,14.195064 87.3670891,14.3380091 C87.4697249,14.4649839 87.6115656,14.5543435 87.7704087,14.5921004 C87.9784339,14.6513017 88.1919528,14.6891405 88.4076535,14.7050299 C88.6577116,14.7050299 88.9400353,14.7332622 89.2465581,14.7332622 C89.6821432,14.7614946 90.0894959,14.7977934 90.4565167,14.8502249 C90.7936433,14.8922511 91.1210536,14.9918384 91.4244835,15.1446482 C91.6829551,15.2765067 91.8984297,15.4793886 92.0455956,15.7294615 C92.2072107,16.0541482 92.2782701,16.4164115 92.2512886,16.7780922 C92.2259244,17.4712742 91.9973066,18.1416993 91.5938777,18.7059596 L91.6140437,18.7059596 Z M103.798327,14.8703909 C103.243177,15.6164435 102.513304,16.2147451 101.672833,16.6127312 L101.608302,18.5526981 L99.9103263,19.2464077 L99.9546915,17.3387064 C99.3133279,17.5538652 98.6508132,17.6998888 97.9784258,17.7742915 C97.5927301,17.8168984 97.2040012,17.8249969 96.8168656,17.7984906 L97.4581436,16.0400175 C98.5008684,16.1195572 99.5479714,15.9595256 100.519339,15.5721669 C101.095025,15.3997722 101.623486,15.0975976 102.064053,14.6888971 C102.327552,14.4300176 102.484415,14.0817535 102.503671,13.7128638 C102.522156,13.5167441 102.465986,13.3208682 102.346376,13.1643493 C102.218812,13.0228262 102.051555,12.9230345 101.866426,12.8779924 C101.61976,12.8142319 101.366846,12.7777148 101.112219,12.7690962 L100.128119,12.7690962 C99.7860959,12.7725241 99.4441334,12.7577147 99.1036873,12.724731 C98.7836827,12.695861 98.4704395,12.6155073 98.1760524,12.4867725 C97.9005014,12.3636821 97.6665442,12.1633474 97.5025088,11.9100256 C97.3164298,11.5891624 97.2333667,11.2188979 97.2645503,10.8492952 C97.2904414,10.084727 97.5572293,9.34788413 98.0268242,8.7439673 C98.5966127,8.03603364 99.343959,7.49187649 100.19265,7.16698796 L100.237015,5.41254802 L101.926924,4.98502933 L101.886592,6.64267257 C102.326022,6.54509126 102.772355,6.48171476 103.22158,6.4531124 C103.524247,6.43831826 103.8276,6.44640766 104.129049,6.47731157 L103.725729,8.0663905 C103.376436,8.0476618 103.026391,8.0476618 102.677098,8.0663905 C102.189962,8.10050835 101.708273,8.18981027 101.241281,8.33258138 C100.746781,8.45361662 100.28794,8.68994745 99.90226,9.02225777 C99.6156132,9.26746521 99.4445255,9.62133895 99.4303761,9.99829102 C99.4123495,10.1701107 99.4551675,10.3428097 99.551372,10.4863076 C99.6576977,10.608215 99.7982199,10.6953388 99.9546915,10.7363657 C100.163675,10.7966661 100.378795,10.8331959 100.59597,10.845262 C100.841994,10.845262 101.124318,10.8775276 101.430841,10.8815608 C101.866426,10.9017268 102.273779,10.9420587 102.6408,10.9944902 C102.983563,11.036606 103.316484,11.1375739 103.624899,11.2929467 C103.887391,11.4303586 104.103463,11.6422211 104.246011,11.9019592 C104.407626,12.2266459 104.478686,12.5889092 104.451704,12.9505899 C104.417495,13.6421791 104.183539,14.3090231 103.778161,14.8703909 L103.798327,14.8703909 Z" id="Shape"></path>
            <path d="M22.9515606,131.736564 C23.145154,132.091485 23.3548802,132.543203 23.6251042,133.051385 C23.8953283,133.559568 24.1413532,134.136315 24.4317433,134.745327 C24.7221334,135.35434 24.9802579,135.975452 25.2383823,136.608664 C25.4965068,137.241875 25.7586645,137.838788 25.9966231,138.399402 L26.758897,136.608664 C27.0250878,135.975452 27.2993451,135.35434 27.565536,134.745327 C27.8317269,134.136315 28.1059842,133.571668 28.3721751,133.051385 C28.6383659,132.531103 28.8480921,132.091485 29.0416855,131.736564 L31.324474,131.736564 C31.4333702,132.478672 31.5301669,133.30951 31.6229304,134.229078 C31.7156939,135.148647 31.7963578,136.104514 31.8649221,137.100713 C31.9334865,138.096913 31.9980176,139.093112 32.0585155,140.093344 C32.1190134,141.093577 32.1674118,142.033311 32.2117769,142.916581 L29.7595942,142.916581 C29.7273287,141.831651 29.6829635,140.645892 29.630532,139.367369 C29.5781004,138.088846 29.4974365,136.798224 29.3885403,135.495502 C29.1949469,135.94722 28.9852207,136.447336 28.743229,136.99585 C28.5012373,137.544365 28.2713452,138.092879 28.0374198,138.641394 C27.8034945,139.189909 27.5816688,139.714224 27.3679094,140.21434 C27.1541501,140.714456 26.9645899,141.141975 26.8153617,141.496896 L25.0568886,141.496896 C24.9076603,141.141975 24.7221334,140.714456 24.508374,140.21434 C24.2946147,139.714224 24.0687557,139.189909 23.8348304,138.641394 C23.6009051,138.092879 23.3669798,137.544365 23.1330544,136.99585 C22.8991291,136.447336 22.6773034,135.94722 22.48371,135.495502 C22.3734693,136.796879 22.2928054,138.087502 22.2417183,139.367369 C22.1892867,140.645892 22.1449216,141.831651 22.112656,142.916581 L19.6604733,142.916581 C19.7048385,142.033311 19.7532368,141.093577 19.8137347,140.093344 C19.8742327,139.093112 19.9387638,138.096913 20.0073281,137.100713 C20.0758924,136.104514 20.1565563,135.148647 20.2493198,134.229078 C20.3420833,133.30951 20.43888,132.478672 20.5477763,131.736564 L22.9515606,131.736564 Z M42.0527733,143.14244 C41.3659696,143.156955 40.6823663,143.044844 40.0361757,142.811718 C39.5032404,142.61372 39.0210461,142.299605 38.6245574,141.892149 C38.254122,141.490492 37.9784788,141.010873 37.8179183,140.488597 C37.634629,139.906844 37.5447823,139.299697 37.5517274,138.689792 L37.5517274,131.736564 L40.0684413,131.736564 L40.0684413,138.480066 C40.0606932,138.870114 40.1123724,139.259068 40.2217027,139.63356 C40.299989,139.917254 40.4374416,140.181163 40.6250222,140.407934 C40.798651,140.604865 41.0212857,140.752361 41.2703335,140.835452 C41.538449,140.92324 41.8190594,140.96683 42.1011717,140.964514 C42.6546126,140.986603 43.1932608,140.78279 43.5934539,140.399867 C43.9752631,140.023436 44.1661676,139.383502 44.1661676,138.480066 L44.1661676,131.736564 L46.6506159,131.736564 L46.6506159,138.689792 C46.656643,139.30289 46.5640418,139.912968 46.3763586,140.496664 C46.2064143,141.024292 45.9196661,141.506801 45.537454,141.908282 C45.1349515,142.318044 44.6437197,142.629893 44.1016365,142.819784 C43.4426638,143.045753 42.7493008,143.154944 42.0527733,143.14244 Z M55.3623177,140.99678 C55.6579453,141.003863 55.9533026,140.974056 56.2415542,140.90805 C56.4401086,140.861466 56.6286467,140.779493 56.7981352,140.666058 C56.929644,140.577464 57.0309596,140.450819 57.0885252,140.30307 C57.1434056,140.15326 57.1707335,139.994758 57.1691891,139.83522 C57.1684524,139.45985 56.9730218,139.111739 56.6529401,138.915651 C56.0988375,138.577071 55.5020366,138.313936 54.8783342,138.133211 C54.5113135,138.004149 54.1483259,137.854921 53.7813051,137.68956 C53.4238368,137.529887 53.0921606,137.317832 52.7972055,137.060381 C52.503328,136.802669 52.2622573,136.490373 52.0873631,136.140813 C51.8940205,135.730137 51.8000675,135.279716 51.8131058,134.825991 C51.8057414,134.3451 51.90491,133.86854 52.1034959,133.430506 C52.2890313,133.021821 52.5648264,132.660529 52.9101349,132.373809 C53.2932302,132.069634 53.7314608,131.842302 54.2007574,131.704298 C54.7557572,131.540686 55.3322818,131.461822 55.9108322,131.470373 C57.0607391,131.447024 58.198044,131.71332 59.2180523,132.244746 L58.4920772,134.229078 C58.1574354,134.05849 57.8094246,133.915509 57.4515128,133.80156 C57.0042116,133.668189 56.5388045,133.60559 56.07216,133.616033 C55.6247915,133.583481 55.1767665,133.669747 54.7734711,133.866091 C54.5087411,134.028298 54.3539782,134.322347 54.3701516,134.632398 C54.3638777,134.81537 54.4146152,134.99577 54.5153466,135.148647 C54.6230399,135.300756 54.7601931,135.42968 54.9186662,135.527767 C55.1132974,135.648319 55.3184914,135.750916 55.5317119,135.83429 C55.761604,135.927054 56.0197285,136.019817 56.2980189,136.116614 C56.8787991,136.330373 57.3829485,136.544132 57.8145004,136.753859 C58.2090275,136.939656 58.57123,137.187479 58.8873303,137.4879 C59.1703479,137.764411 59.3880588,138.100623 59.5245751,138.472 C59.6753614,138.913014 59.7463795,139.377363 59.7343013,139.843286 C59.7787089,140.779339 59.370546,141.679699 58.6372722,142.263203 C57.9072639,142.83995 56.8021684,143.126307 55.3300521,143.126307 C54.8821233,143.130176 54.434533,143.100517 53.9910313,143.037577 C53.6348092,142.985898 53.2819594,142.913173 52.9343341,142.819784 C52.6592293,142.747815 52.3896547,142.656159 52.1276951,142.545527 C51.9375661,142.46376 51.7517913,142.372218 51.5711141,142.27127 L52.2809565,140.254672 C52.6744126,140.460507 53.0879681,140.625388 53.5151142,140.746722 C54.1153234,140.919882 54.7376727,141.00413 55.3623177,140.99678 Z M64.9290568,131.736564 L67.4457706,131.736564 L67.4457706,142.916581 L64.9290568,142.916581 L64.9290568,131.736564 Z M78.3515306,143.14244 C76.5312151,143.14244 75.1464847,142.636946 74.1973395,141.625958 C73.2481942,140.614971 72.7722771,139.173776 72.7695883,137.302373 C72.7555092,136.456686 72.9033621,135.616115 73.2051734,134.825991 C73.4767958,134.135778 73.8888171,133.509506 74.415132,132.986854 C74.9283744,132.481893 75.5447541,132.093904 76.2220035,131.849493 C76.9501102,131.580421 77.7204953,131.443828 78.4967256,131.446174 C78.9291652,131.443498 79.3610126,131.478586 79.7873481,131.551037 C80.1311092,131.609165 80.4706412,131.690006 80.8037133,131.793028 C81.0524545,131.868763 81.2951336,131.963138 81.5296884,132.075352 C81.7232818,132.172149 81.8644436,132.24878 81.9330079,132.301211 L81.2070328,134.317809 C80.8212592,134.119807 80.4157021,133.962992 79.9970742,133.849958 C79.4894734,133.714321 78.9656221,133.649179 78.4402609,133.656365 C78.0529459,133.656413 77.6684198,133.721864 77.3028998,133.849958 C76.9316149,133.978869 76.594918,134.191375 76.3188002,134.47107 C76.0148193,134.786916 75.7811486,135.163538 75.633157,135.576166 C75.4478248,136.104435 75.3603532,136.662066 75.3750325,137.221709 C75.3715566,137.708158 75.428456,138.193158 75.5444267,138.665593 C75.6433125,139.084668 75.8302964,139.477884 76.0929412,139.819087 C76.3581585,140.149646 76.6982546,140.412321 77.0851073,140.585394 C77.553438,140.786284 78.0599431,140.88263 78.5693231,140.867718 C78.8985102,140.870908 79.2274711,140.849337 79.5534227,140.803187 C79.8141199,140.766088 80.0726214,140.714926 80.3277962,140.649925 C80.5316208,140.598033 80.7311745,140.530616 80.9247091,140.448265 L81.3925598,140.238539 L82.0862694,142.255137 C81.6145072,142.515236 81.1098514,142.710587 80.5859207,142.835917 C79.8576251,143.034835 79.1064887,143.137879 78.3515306,143.14244 Z M99.4854737,133.672497 C98.3104694,133.672497 97.4634984,133.997842 96.9445607,134.648531 C96.3849057,135.422277 96.108618,136.365073 96.1621208,137.318506 C96.1563212,137.822552 96.2214915,138.324907 96.3557141,138.810788 C96.4707239,139.230063 96.668165,139.622203 96.9364943,139.964282 C97.1951837,140.287472 97.5269465,140.544589 97.9044611,140.714456 C98.3316727,140.899953 98.7939792,140.990763 99.2596147,140.980647 C99.5379052,140.980647 99.7798969,140.980647 99.9775235,140.980647 C100.153647,140.972088 100.328896,140.950519 100.501839,140.916116 L100.501839,137.028116 L103.018553,137.028116 L103.018553,142.545527 C102.545243,142.709723 102.059766,142.836486 101.566602,142.924647 C100.752197,143.070834 99.9256208,143.138365 99.0982869,143.126307 C98.3191671,143.131749 97.545585,142.995074 96.8154984,142.722988 C96.1559155,142.480193 95.5581786,142.094556 95.0650917,141.593693 C94.5646856,141.07366 94.1822574,140.45187 93.9438634,139.770689 C93.6665222,138.977729 93.5300253,138.142368 93.5405439,137.302373 C93.5250301,136.45395 93.6729135,135.610467 93.976129,134.817925 C94.2488371,134.130647 94.6607908,133.507224 95.1860875,132.986854 C95.6923751,132.484909 96.3002062,132.097107 96.9687598,131.849493 C97.6667336,131.582879 98.4075901,131.44619 99.1547517,131.446174 C99.6326967,131.443204 100.11012,131.478269 100.582503,131.551037 C100.953074,131.607645 101.319536,131.688482 101.679532,131.793028 C101.939245,131.867249 102.192763,131.961644 102.437773,132.075352 C102.635399,132.172149 102.780594,132.24878 102.865291,132.301211 L102.139316,134.317809 C101.760703,134.120503 101.36352,133.961089 100.953557,133.841892 C100.475042,133.714308 99.9804696,133.657241 99.4854737,133.672497 Z M116.086105,142.916581 C115.961076,142.513261 115.827981,142.130108 115.682786,141.706622 L115.255267,140.496664 L110.887317,140.496664 L110.483997,141.706622 C110.342835,142.109942 110.20974,142.513261 110.080678,142.916581 L107.467167,142.916581 C107.886619,141.712 108.289939,140.598838 108.677126,139.577095 C109.064312,138.555352 109.434022,137.592763 109.786254,136.689327 C110.143864,135.785892 110.498785,134.928166 110.851018,134.116149 C111.201906,133.30951 111.568927,132.502871 111.944014,131.736564 L114.331665,131.736564 C114.700031,132.510937 115.061674,133.304132 115.416595,134.116149 C115.771516,134.928166 116.13047,135.785892 116.493458,136.689327 C116.856446,137.592763 117.2275,138.555352 117.60662,139.577095 C117.98574,140.598838 118.38906,141.712 118.816578,142.916581 L116.086105,142.916581 Z M113.061209,134.26941 C113.004744,134.430738 112.92408,134.67273 112.815184,134.930854 C112.706288,135.188979 112.581259,135.535834 112.44413,135.898821 C112.307001,136.261809 112.15374,136.669162 111.980313,137.10878 C111.806885,137.548398 111.637491,138.012216 111.46003,138.496199 L114.658354,138.496199 C114.48896,138.012216 114.323599,137.548398 114.162271,137.104747 C114.000943,136.661095 113.847682,136.257776 113.702487,135.894788 C113.561325,135.527767 113.432263,135.205112 113.323367,134.926821 C113.21447,134.648531 113.12574,134.426705 113.061209,134.26941 Z M126.411085,131.736564 C126.604679,132.091485 126.814405,132.543203 127.080596,133.051385 C127.346786,133.559568 127.600878,134.136315 127.887235,134.745327 C128.173591,135.35434 128.435749,135.975452 128.693874,136.608664 L129.456148,138.399402 C129.694106,137.838788 129.944164,137.241875 130.214388,136.608664 C130.484612,135.975452 130.75887,135.35434 131.021027,134.745327 C131.283185,134.136315 131.557442,133.571668 131.827666,133.051385 C132.09789,132.531103 132.307617,132.091485 132.50121,131.736564 L134.792065,131.736564 C134.900961,132.478672 134.997758,133.30951 135.090521,134.229078 C135.183285,135.148647 135.259916,136.104514 135.332513,137.100713 C135.405111,138.096913 135.465608,139.093112 135.526106,140.093344 C135.586604,141.093577 135.635003,142.033311 135.679368,142.916581 L133.227185,142.916581 C133.19492,141.831651 133.150554,140.645892 133.098123,139.367369 C133.045691,138.088846 132.960994,136.798224 132.856131,135.495502 C132.662538,135.94722 132.452812,136.447336 132.206787,136.99585 C131.960762,137.544365 131.734903,138.092879 131.505011,138.641394 C131.275119,139.189909 131.04926,139.714224 130.831467,140.21434 C130.613675,140.714456 130.428148,141.141975 130.282953,141.496896 L128.524479,141.496896 C128.371218,141.141975 128.189724,140.714456 127.971932,140.21434 C127.754139,139.714224 127.532313,139.189909 127.302421,138.641394 C127.072529,138.092879 126.834571,137.544365 126.596612,136.99585 C126.358654,136.447336 126.144894,135.94722 125.951301,135.495502 C125.84106,136.796879 125.760396,138.087502 125.709309,139.367369 C125.652844,140.645892 125.612512,141.831651 125.580247,142.916581 L123.119998,142.916581 C123.164363,142.033311 123.212761,141.093577 123.273259,140.093344 C123.333757,139.093112 123.398288,138.096913 123.466853,137.100713 C123.535417,136.104514 123.616081,135.148647 123.708844,134.229078 C123.801608,133.30951 123.898404,132.478672 124.007301,131.736564 L126.411085,131.736564 Z M141.140314,142.916581 L141.140314,131.736564 L148.690456,131.736564 L148.690456,133.849958 L143.657028,133.849958 L143.657028,136.044016 L148.125808,136.044016 L148.125808,138.109012 L143.657028,138.109012 L143.657028,140.803187 L149.06151,140.803187 L149.06151,142.916581 L141.140314,142.916581 Z" id="Music-Game"></path>
            <path d="M14.0341659,86.8471006 L19.6282078,86.8471006 L19.6282078,107.355898 C19.6411982,108.766917 19.48137,110.174219 19.1522907,111.546388 C18.8492629,112.791798 18.2688266,113.952671 17.4543155,114.942339 C16.5722947,115.963389 15.4513808,116.750384 14.1914606,117.233194 C12.5336766,117.84254 10.7741654,118.127349 9.00880467,118.072098 C7.29071145,118.110443 5.57988799,117.837148 3.95924422,117.265459 C2.78090715,116.856189 1.67232866,116.268574 0.672190093,115.523119 L2.65652216,111.147102 C3.51230836,111.713089 4.42141938,112.193986 5.37086256,112.582919 C6.40757589,113.030663 7.5246161,113.262579 8.65388349,113.264529 C10.5360413,113.256463 11.9032945,112.785924 12.7556431,111.852911 C13.6079917,110.919899 14.0341659,109.306621 14.0341659,107.013077 L14.0341659,86.8471006 Z M43.0207402,99.1725453 C43.3438293,100.388107 43.5025368,101.64149 43.492624,102.899218 L43.492624,116.890372 C42.6698522,117.065144 41.4276281,117.277559 39.7659516,117.527617 C37.9037052,117.791419 36.0244631,117.916792 34.1436775,117.902704 C32.8674937,117.910673 31.5944469,117.775386 30.3484407,117.499384 C29.29477,117.275537 28.2973455,116.840621 27.4163078,116.220862 C26.6031806,115.625704 25.9515923,114.836866 25.520706,113.925974 C25.0322928,112.830983 24.797896,111.639696 24.8350628,110.441293 C24.7976295,109.275795 25.064521,108.120656 25.6094363,107.089708 C26.113623,106.186859 26.8325696,105.422199 27.7026646,104.863384 C28.6404345,104.2682 29.6793359,103.849906 30.767893,103.629226 C31.9611909,103.376236 33.177953,103.250504 34.3977688,103.254139 C35.0163959,103.255874 35.6344412,103.292229 36.2490054,103.363035 C36.9471981,103.444535 37.6395821,103.569811 38.3220677,103.738122 L38.3220677,102.854853 C38.3247059,102.26048 38.2515178,101.668198 38.1042752,101.092346 C37.9623808,100.547572 37.6974693,100.042585 37.3299017,99.6161968 C36.9358965,99.1699458 36.4368703,98.8289446 35.8779514,98.6240307 C35.148153,98.3661926 34.3768864,98.2458532 33.6032293,98.2691096 C32.4657427,98.2613029 31.3296566,98.3503548 30.2072789,98.5353004 C29.3532432,98.6669101 28.5124418,98.8733991 27.6945983,99.1523793 L27.0452538,94.828794 C28.0129319,94.524506 29.0008133,94.2886543 30.0015859,94.1229848 C31.3703692,93.8823902 32.7579616,93.7649577 34.1477106,93.7720969 C35.6537196,93.7335877 37.1549451,93.9574068 38.5842254,94.4335409 C39.6857041,94.803474 40.6789602,95.4393242 41.4760264,96.2847775 C42.2146712,97.109835 42.7444233,98.1001811 43.0207402,99.1725453 Z M65.945422,112.425625 L66.7157623,116.825841 C65.8626668,117.204407 64.9657871,117.475368 64.045787,117.63248 C62.8326262,117.868522 61.5993874,117.986037 60.3634798,117.983368 C58.6002394,118.01923 56.8472577,117.706736 55.205023,117.063799 C53.818563,116.515353 52.5766551,115.655676 51.5751473,114.551119 C50.5984173,113.437304 49.8697644,112.128478 49.4375538,110.711517 C48.9533584,109.144459 48.7152561,107.511757 48.7317447,105.871683 C48.7237486,104.241404 48.9966172,102.621928 49.5383837,101.08428 C50.0311182,99.6607188 50.8031017,98.3498551 51.8090726,97.2285452 C52.8095552,96.1271896 54.035097,95.2537675 55.4026496,94.6674662 C56.9091026,94.0324426 58.5312334,93.7179058 60.1658532,93.7438645 C62.2835921,93.7379908 64.3817672,94.149129 66.3406751,94.9538231 L65.1952477,99.3217735 C64.518543,99.0357579 63.8163379,98.8142932 63.0979861,98.6603295 C62.2810636,98.4787776 61.4463451,98.3894884 60.6095047,98.3941386 C58.5229983,98.3968274 56.9352638,99.0515494 55.8463011,100.358305 C54.7573384,101.66506 54.212857,103.509575 54.212857,105.891849 C54.2155458,108.177326 54.7304504,109.992264 55.7575708,111.336662 C56.7846912,112.681061 58.5189651,113.35326 60.9603927,113.35326 C61.8637176,113.354011 62.764874,113.264841 63.6505339,113.087069 C64.435093,112.941346 65.2036582,112.719827 65.945422,112.425625 Z M89.2774565,114.147799 C89.9960635,115.198814 90.6571341,116.288032 91.2577554,117.410654 L85.0869666,117.410654 C84.5599624,116.499152 83.95095,115.543285 83.2599292,114.543052 C82.5635308,113.540131 81.8200785,112.569476 81.0295722,111.631085 C80.2390659,110.692695 79.4324269,109.804048 78.6096551,108.965143 C77.8602726,108.190305 77.0511413,107.475572 76.1897379,106.82755 L76.1897379,117.406621 L70.8497874,117.406621 L70.8497874,84.0641959 L76.1776383,83.1849593 L76.1776383,103.350936 C76.8511819,102.645126 77.5690907,101.882852 78.3353978,101.076213 C79.1017049,100.269574 79.8518792,99.4629353 80.5859207,98.6562963 C81.3199623,97.8496572 82.017705,97.0672174 82.6791491,96.3170431 C83.3405931,95.5668687 83.9092736,94.9134911 84.3771243,94.3569102 L90.6850416,94.3569102 C89.2169586,96.0024538 87.669556,97.707151 86.0428339,99.4710017 C84.4161118,101.234852 82.7813233,102.955682 81.1384685,104.633492 C82.1134421,105.460049 83.0361316,106.34637 83.9012072,107.287334 C84.8718629,108.333276 85.8129418,109.443749 86.7244439,110.618753 C87.635946,111.793758 88.4869502,112.970106 89.2774565,114.147799 Z M115.097972,100.89472 C115.66043,102.509235 115.932171,104.210689 115.900578,105.920081 C115.915204,107.558271 115.685475,109.189485 115.218968,110.759915 C114.808552,112.135951 114.142173,113.422186 113.254802,114.551119 C112.396764,115.614069 111.301301,116.460877 110.056478,117.023467 C108.689232,117.62738 107.207205,117.927363 105.712727,117.902704 C104.69854,117.909497 103.68843,117.773729 102.71203,117.499384 C101.937473,117.283114 101.188382,116.984289 100.47764,116.608048 L100.47764,125.561742 L95.1417224,125.561742 L95.1417224,95.0869185 C96.2279963,94.7965284 97.5656727,94.5168936 99.1547517,94.2480139 C100.815797,93.9745097 102.496709,93.839605 104.180113,93.8446944 C105.849795,93.8178344 107.509976,94.100913 109.076412,94.6795658 C110.46467,95.2099039 111.721096,96.035595 112.758719,97.0994829 C113.798915,98.1842598 114.59633,99.477997 115.097972,100.89472 Z M161.11673,112.46999 L161.995967,116.733077 C161.207567,117.053862 160.39924,117.323305 159.57605,117.539716 C158.423137,117.831949 157.236123,117.967608 156.047004,117.943036 C154.643475,117.981344 153.245243,117.755602 151.925078,117.277559 C150.8925,116.888665 149.985939,116.224784 149.303501,115.357758 C148.625755,114.459269 148.158501,113.420008 147.936248,112.316729 C147.653251,110.974994 147.518006,109.606308 147.532929,108.235135 L147.532929,88.2587189 L152.868846,87.3754492 L152.868846,94.3609434 L161.072365,94.3609434 L161.072365,98.7974581 L152.868846,98.7974581 L152.868846,108.174637 C152.868846,110.025874 153.171336,111.336662 153.752116,112.143301 C154.332896,112.94994 155.341195,113.35326 156.752813,113.35326 C157.621887,113.365096 158.48864,113.260652 159.330025,113.042704 C159.935662,112.884765 160.532134,112.69357 161.11673,112.46999 Z M141.471036,100.89472 C142.036237,102.484047 142.316143,104.160747 142.297841,105.847483 C142.316093,107.543068 142.043254,109.229211 141.491202,110.832513 C141.008864,112.249528 140.244691,113.554248 139.244712,114.668081 C138.265023,115.732273 137.06849,116.573973 135.735833,117.136397 C134.31104,117.738936 132.777646,118.042321 131.230753,118.027733 C129.686743,118.048057 128.15536,117.747274 126.733741,117.144463 C125.410611,116.577531 124.22288,115.736222 123.24906,114.676148 C122.24711,113.559526 121.475461,112.256083 120.978371,110.840579 C120.420372,109.238776 120.147365,107.551587 120.171732,105.85555 C120.146005,104.167313 120.419092,102.487833 120.978371,100.89472 C121.478082,99.4811131 122.258714,98.1832612 123.273259,97.079317 C124.253119,96.0221242 125.448262,95.1873118 126.778106,94.6311674 C128.183962,94.0488314 129.693007,93.7566253 131.214621,93.7720969 C132.749349,93.7560549 134.271689,94.0481795 135.691467,94.6311674 C137.026228,95.1804737 138.224068,96.0162081 139.200347,97.079317 C140.200373,98.1897227 140.971948,99.4861873 141.471036,100.89472 Z M38.3220677,113.397625 L38.2817358,107.484961 C37.8617614,107.368696 37.4346916,107.279779 37.0032129,107.21877 C36.3905814,107.125906 35.7715913,107.081404 35.1519763,107.085674 C34.5539605,107.086451 33.9568013,107.130934 33.3652708,107.21877 C32.8062202,107.297994 32.2623327,107.46116 31.7519927,107.702753 C31.2824465,107.926098 30.8792945,108.268082 30.5823661,108.694919 C30.2720142,109.174222 30.1170854,109.7376 30.1387146,110.308197 C30.1387146,111.574621 30.5420341,112.449824 31.3486731,112.933807 C32.3378133,113.465645 33.4536189,113.716702 34.5752293,113.659783 C35.829666,113.691548 37.0842769,113.603766 38.3220677,113.397625 Z M109.100611,111.324563 C109.99598,110.001675 110.446354,108.223035 110.451732,105.988645 C110.446354,103.606371 109.908595,101.75379 108.838453,100.430902 C107.768312,99.1080142 106.04076,98.4465701 103.655798,98.4465701 C103.155681,98.4465701 102.635399,98.4667361 102.090918,98.5111013 C101.545378,98.5558243 101.005246,98.6516977 100.47764,98.7974581 L100.47764,112.002139 C101.060536,112.381548 101.689401,112.685138 102.349042,112.905575 C103.150566,113.182107 103.993726,113.318541 104.841557,113.308895 C106.782868,113.308895 108.202553,112.647451 109.100611,111.324563 Z M135.340579,111.381027 L135.340579,111.368928 C136.324679,109.989575 136.816729,108.155816 136.816729,105.867649 C136.816729,103.579483 136.324679,101.763201 135.340579,100.418803 C134.3466,99.15281 132.826212,98.4135128 131.216637,98.4135128 C129.607062,98.4135128 128.086674,99.15281 127.092695,100.418803 C126.108595,101.72018 125.616546,103.536463 125.616546,105.867649 C125.616546,108.198836 126.108595,110.036629 127.092695,111.381027 C128.078495,112.659953 129.601876,113.409134 131.216637,113.409134 C132.831398,113.409134 134.354779,112.659953 135.340579,111.381027 Z" id="Jackpot"></path>
        </g>
    </g>
</svg>